solid OpenSCAD_Model
  facet normal -0.882958 0.365733 0.294319
    outer loop
      vertex -55 0 0
      vertex -28.2843 28.2843 45
      vertex -38.8909 38.8909 0
    endloop
  endfacet
  facet normal -0.882958 0.365733 0.294319
    outer loop
      vertex -28.2843 28.2843 45
      vertex -55 0 0
      vertex -40 0 45
    endloop
  endfacet
  facet normal 0.365733 0.882958 0.294319
    outer loop
      vertex 0 55 0
      vertex 28.2843 28.2843 45
      vertex 38.8909 38.8909 0
    endloop
  endfacet
  facet normal 0.365733 0.882958 0.294319
    outer loop
      vertex 28.2843 28.2843 45
      vertex 0 55 0
      vertex 0 40 45
    endloop
  endfacet
  facet normal 0 0 -1
    outer loop
      vertex 38.8909 -38.8909 0
      vertex 38.8909 38.8909 0
      vertex 55 0 0
    endloop
  endfacet
  facet normal 0 0 -1
    outer loop
      vertex 0 -55 0
      vertex 38.8909 38.8909 0
      vertex 38.8909 -38.8909 0
    endloop
  endfacet
  facet normal 0 0 -1
    outer loop
      vertex 0 -55 0
      vertex 0 55 0
      vertex 38.8909 38.8909 0
    endloop
  endfacet
  facet normal 0 0 -1
    outer loop
      vertex -38.8909 -38.8909 0
      vertex 0 55 0
      vertex 0 -55 0
    endloop
  endfacet
  facet normal 0 0 -1
    outer loop
      vertex -38.8909 -38.8909 0
      vertex -38.8909 38.8909 0
      vertex 0 55 0
    endloop
  endfacet
  facet normal 0 -0 -1
    outer loop
      vertex -38.8909 38.8909 0
      vertex -38.8909 -38.8909 0
      vertex -55 0 0
    endloop
  endfacet
  facet normal 0.882958 0.365733 0.294319
    outer loop
      vertex 55 0 0
      vertex 28.2843 28.2843 45
      vertex 40 0 45
    endloop
  endfacet
  facet normal 0.882958 0.365733 0.294319
    outer loop
      vertex 28.2843 28.2843 45
      vertex 55 0 0
      vertex 38.8909 38.8909 0
    endloop
  endfacet
  facet normal -0.365733 0.882958 0.294319
    outer loop
      vertex 0 55 0
      vertex -28.2843 28.2843 45
      vertex 0 40 45
    endloop
  endfacet
  facet normal -0.365733 0.882958 0.294319
    outer loop
      vertex -28.2843 28.2843 45
      vertex 0 55 0
      vertex -38.8909 38.8909 0
    endloop
  endfacet
  facet normal -0.882958 -0.365733 0.294319
    outer loop
      vertex -55 0 0
      vertex -28.2843 -28.2843 45
      vertex -40 0 45
    endloop
  endfacet
  facet normal -0.882958 -0.365733 0.294319
    outer loop
      vertex -28.2843 -28.2843 45
      vertex -55 0 0
      vertex -38.8909 -38.8909 0
    endloop
  endfacet
  facet normal 0.365733 -0.882958 0.294319
    outer loop
      vertex 0 -55 0
      vertex 28.2843 -28.2843 45
      vertex 0 -40 45
    endloop
  endfacet
  facet normal 0.365733 -0.882958 0.294319
    outer loop
      vertex 28.2843 -28.2843 45
      vertex 0 -55 0
      vertex 38.8909 -38.8909 0
    endloop
  endfacet
  facet normal -0.365733 -0.882958 0.294319
    outer loop
      vertex 0 -55 0
      vertex -28.2843 -28.2843 45
      vertex -38.8909 -38.8909 0
    endloop
  endfacet
  facet normal -0.365733 -0.882958 0.294319
    outer loop
      vertex -28.2843 -28.2843 45
      vertex 0 -55 0
      vertex 0 -40 45
    endloop
  endfacet
  facet normal 0.882958 -0.365733 0.294319
    outer loop
      vertex 28.2843 -28.2843 45
      vertex 55 0 0
      vertex 40 0 45
    endloop
  endfacet
  facet normal 0.882958 -0.365733 0.294319
    outer loop
      vertex 55 0 0
      vertex 28.2843 -28.2843 45
      vertex 38.8909 -38.8909 0
    endloop
  endfacet
  facet normal -0.678598 0.281085 0.678598
    outer loop
      vertex -40 0 45
      vertex -21.2132 21.2132 55
      vertex -28.2843 28.2843 45
    endloop
  endfacet
  facet normal -0.678598 0.281085 0.678598
    outer loop
      vertex -21.2132 21.2132 55
      vertex -40 0 45
      vertex -30 0 55
    endloop
  endfacet
  facet normal 0.281085 0.678598 0.678598
    outer loop
      vertex 0 40 45
      vertex 21.2132 21.2132 55
      vertex 28.2843 28.2843 45
    endloop
  endfacet
  facet normal 0.281085 0.678598 0.678598
    outer loop
      vertex 21.2132 21.2132 55
      vertex 0 40 45
      vertex 0 30 55
    endloop
  endfacet
  facet normal 0.678598 0.281085 0.678598
    outer loop
      vertex 40 0 45
      vertex 21.2132 21.2132 55
      vertex 30 0 55
    endloop
  endfacet
  facet normal 0.678598 0.281085 0.678598
    outer loop
      vertex 21.2132 21.2132 55
      vertex 40 0 45
      vertex 28.2843 28.2843 45
    endloop
  endfacet
  facet normal -0.281085 0.678598 0.678598
    outer loop
      vertex 0 40 45
      vertex -21.2132 21.2132 55
      vertex 0 30 55
    endloop
  endfacet
  facet normal -0.281085 0.678598 0.678598
    outer loop
      vertex -21.2132 21.2132 55
      vertex 0 40 45
      vertex -28.2843 28.2843 45
    endloop
  endfacet
  facet normal -0.678598 -0.281085 0.678598
    outer loop
      vertex -40 0 45
      vertex -21.2132 -21.2132 55
      vertex -30 0 55
    endloop
  endfacet
  facet normal -0.678598 -0.281085 0.678598
    outer loop
      vertex -21.2132 -21.2132 55
      vertex -40 0 45
      vertex -28.2843 -28.2843 45
    endloop
  endfacet
  facet normal 0.281085 -0.678598 0.678598
    outer loop
      vertex 0 -40 45
      vertex 21.2132 -21.2132 55
      vertex 0 -30 55
    endloop
  endfacet
  facet normal 0.281085 -0.678598 0.678598
    outer loop
      vertex 21.2132 -21.2132 55
      vertex 0 -40 45
      vertex 28.2843 -28.2843 45
    endloop
  endfacet
  facet normal -0.281085 -0.678598 0.678598
    outer loop
      vertex 0 -40 45
      vertex -21.2132 -21.2132 55
      vertex -28.2843 -28.2843 45
    endloop
  endfacet
  facet normal -0.281085 -0.678598 0.678598
    outer loop
      vertex -21.2132 -21.2132 55
      vertex 0 -40 45
      vertex 0 -30 55
    endloop
  endfacet
  facet normal 0 0 1
    outer loop
      vertex 21.2132 21.2132 55
      vertex 25 0 55
      vertex 30 0 55
    endloop
  endfacet
  facet normal 0 0 1
    outer loop
      vertex 21.2132 21.2132 55
      vertex 17.6777 17.6777 55
      vertex 25 0 55
    endloop
  endfacet
  facet normal 0 0 1
    outer loop
      vertex 0 30 55
      vertex 17.6777 17.6777 55
      vertex 21.2132 21.2132 55
    endloop
  endfacet
  facet normal 0 0 1
    outer loop
      vertex 0 30 55
      vertex 0 25 55
      vertex 17.6777 17.6777 55
    endloop
  endfacet
  facet normal 0 0 1
    outer loop
      vertex 0 30 55
      vertex -17.6777 17.6777 55
      vertex 0 25 55
    endloop
  endfacet
  facet normal -0 0 1
    outer loop
      vertex -21.2132 21.2132 55
      vertex -17.6777 17.6777 55
      vertex 0 30 55
    endloop
  endfacet
  facet normal 0 0 1
    outer loop
      vertex -21.2132 21.2132 55
      vertex -25 0 55
      vertex -17.6777 17.6777 55
    endloop
  endfacet
  facet normal 0 -0 1
    outer loop
      vertex -25 0 55
      vertex -21.2132 21.2132 55
      vertex -30 0 55
    endloop
  endfacet
  facet normal -0 0 1
    outer loop
      vertex 25 0 55
      vertex 21.2132 -21.2132 55
      vertex 30 0 55
    endloop
  endfacet
  facet normal -0 0 1
    outer loop
      vertex 17.6777 -17.6777 55
      vertex 21.2132 -21.2132 55
      vertex 25 0 55
    endloop
  endfacet
  facet normal 0 0 1
    outer loop
      vertex 0 -25 55
      vertex 21.2132 -21.2132 55
      vertex 17.6777 -17.6777 55
    endloop
  endfacet
  facet normal -0 0 1
    outer loop
      vertex 0 -25 55
      vertex 0 -30 55
      vertex 21.2132 -21.2132 55
    endloop
  endfacet
  facet normal 0 0 1
    outer loop
      vertex -17.6777 -17.6777 55
      vertex 0 -30 55
      vertex 0 -25 55
    endloop
  endfacet
  facet normal 0 0 1
    outer loop
      vertex -17.6777 -17.6777 55
      vertex -21.2132 -21.2132 55
      vertex 0 -30 55
    endloop
  endfacet
  facet normal 0 0 1
    outer loop
      vertex -25 0 55
      vertex -21.2132 -21.2132 55
      vertex -17.6777 -17.6777 55
    endloop
  endfacet
  facet normal 0 0 1
    outer loop
      vertex -21.2132 -21.2132 55
      vertex -25 0 55
      vertex -30 0 55
    endloop
  endfacet
  facet normal 0.678598 -0.281085 0.678598
    outer loop
      vertex 21.2132 -21.2132 55
      vertex 40 0 45
      vertex 30 0 55
    endloop
  endfacet
  facet normal 0.678598 -0.281085 0.678598
    outer loop
      vertex 40 0 45
      vertex 21.2132 -21.2132 55
      vertex 28.2843 -28.2843 45
    endloop
  endfacet
  facet normal -0.92388 -0.382683 0
    outer loop
      vertex 25 0 5
      vertex 17.6777 17.6777 55
      vertex 17.6777 17.6777 5
    endloop
  endfacet
  facet normal -0.92388 -0.382683 0
    outer loop
      vertex 17.6777 17.6777 55
      vertex 25 0 5
      vertex 25 0 55
    endloop
  endfacet
  facet normal 0.92388 -0.382683 0
    outer loop
      vertex -25 0 55
      vertex -17.6777 17.6777 5
      vertex -17.6777 17.6777 55
    endloop
  endfacet
  facet normal 0.92388 -0.382683 0
    outer loop
      vertex -17.6777 17.6777 5
      vertex -25 0 55
      vertex -25 0 5
    endloop
  endfacet
  facet normal -0.382683 -0.92388 0
    outer loop
      vertex 0 25 5
      vertex 17.6777 17.6777 55
      vertex 0 25 55
    endloop
  endfacet
  facet normal -0.382683 -0.92388 -0
    outer loop
      vertex 17.6777 17.6777 55
      vertex 0 25 5
      vertex 17.6777 17.6777 5
    endloop
  endfacet
  facet normal 0 0 1
    outer loop
      vertex 17.6777 17.6777 5
      vertex 17.6777 -17.6777 5
      vertex 25 0 5
    endloop
  endfacet
  facet normal 0 0 1
    outer loop
      vertex 0 25 5
      vertex 17.6777 -17.6777 5
      vertex 17.6777 17.6777 5
    endloop
  endfacet
  facet normal 0 0 1
    outer loop
      vertex 0 25 5
      vertex 0 -25 5
      vertex 17.6777 -17.6777 5
    endloop
  endfacet
  facet normal -0 0 1
    outer loop
      vertex -17.6777 17.6777 5
      vertex 0 -25 5
      vertex 0 25 5
    endloop
  endfacet
  facet normal 0 0 1
    outer loop
      vertex -17.6777 17.6777 5
      vertex -17.6777 -17.6777 5
      vertex 0 -25 5
    endloop
  endfacet
  facet normal 0 -0 1
    outer loop
      vertex -17.6777 -17.6777 5
      vertex -17.6777 17.6777 5
      vertex -25 0 5
    endloop
  endfacet
  facet normal 0.382683 -0.92388 0
    outer loop
      vertex -17.6777 17.6777 5
      vertex 0 25 55
      vertex -17.6777 17.6777 55
    endloop
  endfacet
  facet normal 0.382683 -0.92388 0
    outer loop
      vertex 0 25 55
      vertex -17.6777 17.6777 5
      vertex 0 25 5
    endloop
  endfacet
  facet normal -0.382683 0.92388 0
    outer loop
      vertex 17.6777 -17.6777 5
      vertex 0 -25 55
      vertex 17.6777 -17.6777 55
    endloop
  endfacet
  facet normal -0.382683 0.92388 0
    outer loop
      vertex 0 -25 55
      vertex 17.6777 -17.6777 5
      vertex 0 -25 5
    endloop
  endfacet
  facet normal 0.92388 0.382683 0
    outer loop
      vertex -17.6777 -17.6777 55
      vertex -25 0 5
      vertex -25 0 55
    endloop
  endfacet
  facet normal 0.92388 0.382683 0
    outer loop
      vertex -25 0 5
      vertex -17.6777 -17.6777 55
      vertex -17.6777 -17.6777 5
    endloop
  endfacet
  facet normal -0.92388 0.382683 0
    outer loop
      vertex 17.6777 -17.6777 5
      vertex 25 0 55
      vertex 25 0 5
    endloop
  endfacet
  facet normal -0.92388 0.382683 0
    outer loop
      vertex 25 0 55
      vertex 17.6777 -17.6777 5
      vertex 17.6777 -17.6777 55
    endloop
  endfacet
  facet normal 0.382683 0.92388 -0
    outer loop
      vertex 0 -25 5
      vertex -17.6777 -17.6777 55
      vertex 0 -25 55
    endloop
  endfacet
  facet normal 0.382683 0.92388 0
    outer loop
      vertex -17.6777 -17.6777 55
      vertex 0 -25 5
      vertex -17.6777 -17.6777 5
    endloop
  endfacet
endsolid OpenSCAD_Model
